# xmcd CD database file
#
# Track frame offsets:
#	150
#	21150
#	45600
#	66600
#
# Disc length: 1209 seconds
#
# Revision: 0
# Processed by: cddbd v1.5PL3 Copyright (c) Steve Scherf et al.
# Submitted via: CDex 1.50
#
DISCID=3404b704
DTITLE=MAX - Shinin'on-Shinin'love
DYEAR=1997
DGENRE=JPop
TTITLE0=Shinin'on-Shinin'love
TTITLE1=I will
TTITLE2=Shinin'on-Shinin'love (Original Karaoke)
TTITLE3=I will (Original Karaoke)
EXTD=YEAR: 1997
EXTT0=
EXTT1=
EXTT2=
EXTT3=
PLAYORDER=
